<svg width="500" height="500" viewBox="0 0 500 500" fill="none" xmlns="http://www.w3.org/2000/svg">
<rect width="500" height="500" rx="250" fill="#FFA53C"/>
<path d="M266.357 135.057C266.786 135.053 267.215 135.049 267.656 135.046C285.772 134.922 285.772 134.922 293.695 136.775C294.389 136.935 294.389 136.935 295.098 137.098C315.382 141.925 331.294 152.99 342.25 170.397C348.791 181.097 352.714 193.101 354.88 205.331C354.963 205.794 355.047 206.256 355.132 206.733C356.884 217.473 357.102 228.303 357.068 239.153C357.067 240.544 357.068 241.936 357.068 243.328C357.069 246.295 357.065 249.261 357.059 252.228C357.05 256.517 357.047 260.806 357.046 265.095C357.044 272.058 357.036 279.021 357.026 285.984C357.016 292.738 357.008 299.492 357.003 306.246C357.003 306.668 357.003 307.091 357.002 307.526C357 310.829 356.998 314.132 356.996 317.435C356.985 333.56 356.963 349.685 356.943 365.81C334.256 365.81 311.569 365.81 288.195 365.81C288.175 356.326 288.154 346.841 288.133 337.07C288.116 331.054 288.099 325.038 288.08 319.022C288.07 315.86 288.06 312.698 288.051 309.536C288.049 308.942 288.049 308.942 288.047 308.336C288.028 301.958 288.014 295.581 288.002 289.203C287.99 282.647 287.972 276.09 287.948 269.534C287.934 265.496 287.924 261.458 287.92 257.42C287.917 254.311 287.905 251.202 287.89 248.094C287.885 246.828 287.883 245.561 287.884 244.295C287.892 230.089 286.792 215.339 276.257 204.479C273.255 201.641 270.037 199.526 266.196 197.923C265.843 197.774 265.491 197.625 265.128 197.472C254.961 193.69 242.715 194.717 232.757 198.509C224.183 202.358 219.04 209.25 215.55 217.586C212.137 226.684 212.053 236.047 212.06 245.607C212.055 246.925 212.049 248.242 212.043 249.559C212.031 252.375 212.024 255.191 212.021 258.006C212.018 262.077 212.005 266.148 211.99 270.219C211.967 276.827 211.95 283.434 211.938 290.042C211.927 296.454 211.912 302.866 211.892 309.278C211.891 309.678 211.89 310.079 211.888 310.491C211.878 313.975 211.867 317.459 211.856 320.944C211.809 335.899 211.78 350.854 211.748 365.81C189.061 365.81 166.374 365.81 143 365.81C143 290.583 143 215.355 143 137.848C163.509 137.848 184.018 137.848 205.148 137.848C206.6 145.282 208.052 152.716 209.548 160.376C209.729 160.73 209.911 161.084 210.098 161.449C210.59 160.931 210.59 160.931 211.092 160.403C225.235 146.037 245.577 135.179 266.357 135.057Z" fill="white"/>
</svg>

