<svg width="2000" height="796" viewBox="0 0 2000 796" fill="none" xmlns="http://www.w3.org/2000/svg">
<path d="M989.688 186.563C990.554 186.565 991.42 186.568 992.312 186.571C1012.29 186.665 1031.18 189.11 1050 196C1051.22 196.441 1052.45 196.882 1053.71 197.336C1068.56 202.969 1082.29 210.48 1095 220C1095.86 220.638 1096.72 221.276 1097.61 221.934C1116.69 236.781 1132.13 255.188 1143.97 276.176C1144.64 277.369 1145.32 278.558 1146.01 279.742C1165.05 312.479 1174.03 352.629 1174.2 390.316C1174.21 391.363 1174.22 392.41 1174.22 393.488C1174.24 396.846 1174.25 400.204 1174.25 403.563C1174.25 404.709 1174.25 405.855 1174.25 407.036C1174.24 423.557 1173.92 439.696 1171 456C1170.84 456.966 1170.68 457.932 1170.51 458.928C1163.28 501.533 1145.06 540.871 1115 572C1114.19 572.861 1113.38 573.722 1112.55 574.609C1082.02 606.316 1038.13 621.888 994.809 623.188C956.609 623.879 921.687 614.925 890.812 592.125C890.208 591.68 889.603 591.235 888.98 590.776C882.556 585.899 877.022 580.52 871 575C870.67 644.63 870.34 714.26 870 786C829.08 786 788.16 786 746 786C746 589.98 746 393.96 746 192C783.29 192 820.58 192 859 192C861.31 208.5 863.62 225 866 242C866.33 242.33 866.66 242.66 867 243C867.354 242.501 867.709 242.002 868.074 241.488C890.352 211.444 925.845 193.749 962.292 187.992C971.42 186.655 980.477 186.494 989.688 186.563ZM893.375 329.75C875.01 351.616 868.298 381.907 870 410C870.041 410.721 870.082 411.441 870.125 412.184C871.648 436.837 877.813 459.251 893 479C893.828 480.104 893.828 480.104 894.672 481.231C906.496 495.894 925.443 505.645 944 508C965.958 509.832 987.438 506.509 1004.79 491.988C1005.52 491.332 1006.25 490.676 1007 490C1007.88 489.21 1008.77 488.42 1009.68 487.606C1022.53 475.462 1030.64 460.367 1035.75 443.5C1035.95 442.849 1036.15 442.197 1036.35 441.526C1039.78 429.521 1040.41 417.404 1040.38 405C1040.37 404.232 1040.37 403.465 1040.37 402.674C1040.28 372.867 1032.55 345.526 1011.56 323.548C995.594 307.743 975.049 301.742 953.125 301.751C929.221 302.039 909.485 312.437 893.375 329.75Z" fill="#FFA53C"/>
<path d="M1753.02 186.684C1756.03 186.688 1759.04 186.664 1762.05 186.639C1822.01 186.443 1877.32 209.074 1920 251C1932.49 263.453 1942.89 278.467 1951 294.097C1951.97 295.95 1952.99 297.776 1954.01 299.602C1971.3 331.3 1976.45 368.027 1976.31 403.625C1976.31 405.144 1976.31 405.144 1976.31 406.694C1976.26 421.657 1975.87 436.271 1973 451C1972.83 451.909 1972.66 452.819 1972.48 453.755C1962.1 507.317 1932.79 554.422 1887.51 585.34C1833.64 620.989 1765.45 630.649 1702.65 618.158C1663.71 609.936 1628.68 592.68 1600 565C1599.1 564.163 1598.2 563.327 1597.27 562.465C1562.1 528.86 1544.16 479.631 1540 432C1539.89 430.835 1539.78 429.669 1539.66 428.469C1534.87 369.89 1547.05 307.927 1585.52 261.996C1587.64 259.628 1589.81 257.314 1592 255C1593.09 253.712 1594.17 252.42 1595.25 251.125C1625.72 216.485 1672.22 196.17 1717 189C1718.14 188.815 1719.28 188.631 1720.45 188.44C1731.31 186.875 1742.07 186.661 1753.02 186.684ZM1697.69 325.422C1683.44 341.728 1677.02 361.914 1674 383C1673.8 384.377 1673.8 384.377 1673.6 385.781C1669.95 417.402 1673.99 454.192 1694 480C1696.86 483.484 1699.84 486.782 1703 490C1703.6 490.625 1704.2 491.25 1704.82 491.895C1719.32 505.798 1739.66 510.586 1759.16 510.281C1780.82 509.413 1799.78 498.966 1815 484C1815.69 483.326 1816.37 482.652 1817.08 481.957C1833.79 464.391 1842.05 439.003 1842.2 415.074C1842.21 414.333 1842.22 413.592 1842.22 412.829C1842.24 410.449 1842.25 408.068 1842.25 405.688C1842.25 404.877 1842.25 404.066 1842.25 403.23C1842.24 391.571 1841.98 380.337 1839 369C1838.83 368.365 1838.67 367.73 1838.5 367.075C1831.94 342.916 1816.51 321.461 1794.73 308.946C1784.77 303.509 1773.37 299.712 1762 299C1760.84 298.921 1760.84 298.921 1759.66 298.84C1735.36 297.999 1714.28 308.014 1697.69 325.422Z" fill="#FFA53C"/>
<path d="M244.293 186.797C245.073 186.79 245.852 186.783 246.655 186.776C279.594 186.545 279.594 186.545 294 190C295.263 190.298 295.263 190.298 296.551 190.602C333.432 199.602 362.364 220.23 382.285 252.684C394.178 272.631 401.311 295.011 405.25 317.813C405.401 318.675 405.552 319.537 405.708 320.425C408.893 340.448 409.29 360.641 409.227 380.867C409.226 383.462 409.227 386.057 409.228 388.651C409.229 394.182 409.223 399.713 409.211 405.244C409.195 413.24 409.19 421.237 409.188 429.233C409.183 442.214 409.17 455.195 409.151 468.176C409.132 480.768 409.118 493.361 409.11 505.953C409.109 506.74 409.109 507.527 409.108 508.338C409.104 514.496 409.1 520.655 409.096 526.813C409.078 556.875 409.037 586.938 409 617C367.75 617 326.5 617 284 617C283.963 599.318 283.925 581.636 283.887 563.418C283.856 552.203 283.825 540.987 283.791 529.772C283.773 523.877 283.755 517.982 283.738 512.087C283.734 510.979 283.734 510.979 283.731 509.848C283.696 497.958 283.671 486.068 283.65 474.178C283.628 461.955 283.595 449.731 283.551 437.508C283.525 429.98 283.507 422.451 283.501 414.923C283.495 409.127 283.473 403.332 283.446 397.537C283.437 395.176 283.433 392.815 283.435 390.454C283.449 363.97 281.449 336.47 262.293 316.223C256.836 310.933 250.984 306.989 244 304C243.359 303.723 242.719 303.446 242.059 303.16C223.572 296.109 201.306 298.023 183.199 305.094C167.61 312.27 158.259 325.119 151.914 340.66C145.709 357.62 145.554 375.078 145.568 392.901C145.559 395.357 145.548 397.813 145.537 400.268C145.515 405.518 145.502 410.767 145.498 416.017C145.491 423.607 145.468 431.196 145.441 438.786C145.398 451.105 145.368 463.423 145.346 475.742C145.325 487.696 145.298 499.65 145.262 511.605C145.26 512.351 145.258 513.098 145.256 513.867C145.236 520.362 145.217 526.858 145.197 533.353C145.112 561.236 145.059 589.118 145 617C103.75 617 62.5 617 20 617C20 476.75 20 336.5 20 192C57.29 192 94.58 192 133 192C135.64 205.86 138.28 219.72 141 234C141.33 234.66 141.66 235.32 142 236C142.895 235.035 142.895 235.035 143.809 234.051C169.523 207.267 206.511 187.024 244.293 186.797Z" fill="#FFA53C"/>
<path d="M1275 74C1316.91 74 1358.82 74 1402 74C1402 112.94 1402 151.88 1402 192C1430.71 192 1459.42 192 1489 192C1489 228.63 1489 265.26 1489 303C1460.29 303 1431.58 303 1402 303C1402.09 330.845 1402.09 330.845 1402.21 358.689C1402.26 370.055 1402.31 381.42 1402.35 392.785C1402.37 401.065 1402.4 409.345 1402.45 417.624C1402.47 422.002 1402.49 426.379 1402.5 430.756C1402.5 434.891 1402.52 439.025 1402.55 443.159C1402.56 444.663 1402.57 446.167 1402.57 447.671C1402.56 455.617 1403.01 463.285 1404.36 471.119C1404.54 472.156 1404.54 472.156 1404.72 473.215C1406.46 482.421 1410.19 490.631 1417.67 496.473C1429.76 504.401 1440.63 506.349 1454.88 506.25C1455.95 506.258 1457.03 506.265 1458.13 506.273C1468.61 506.249 1478.42 505.058 1489 504C1489 539.97 1489 575.94 1489 613C1448.76 619.353 1406.44 622.483 1367 610C1365.97 609.678 1365.97 609.678 1364.93 609.349C1349.16 604.257 1334.16 596.318 1322 585C1321.49 584.538 1320.98 584.076 1320.46 583.6C1288.67 554.489 1277.4 512.795 1275 471C1274.49 458.723 1274.64 446.42 1274.7 434.135C1274.71 429.505 1274.72 424.874 1274.72 420.242C1274.73 411.524 1274.75 402.806 1274.78 394.087C1274.82 384.14 1274.83 374.193 1274.85 364.245C1274.88 343.83 1274.94 323.415 1275 303C1255.53 303 1236.06 303 1216 303C1216 266.37 1216 229.74 1216 192C1235.47 192 1254.94 192 1275 192C1275 153.06 1275 114.12 1275 74Z" fill="#FFA53C"/>
<path d="M513 192C553.92 192 594.84 192 637 192C637 332.25 637 472.5 637 617C596.08 617 555.16 617 513 617C513 476.75 513 336.5 513 192Z" fill="#FFA53C"/>
<path d="M624.507 20.9374C625.33 21.618 626.152 22.2986 626.999 22.9999C627.801 23.6393 628.603 24.2786 629.429 24.9374C642.583 35.9214 651.245 52.7229 652.871 69.8046C654.058 90.024 650.065 108.299 636.765 124.055C636.182 124.697 635.6 125.338 634.999 126C634.396 126.683 633.793 127.366 633.171 128.07C619.933 142.224 600.73 149.565 581.617 150.351C570.157 150.596 558.994 150.537 547.999 147C546.899 146.648 545.798 146.296 544.664 145.933C525.916 139.313 511.32 126.429 502.624 108.5C501.713 106.348 500.836 104.182 499.999 102C499.659 101.116 499.319 100.231 498.968 99.3202C493.524 81.9291 496.226 61.8343 503.812 45.6249C506.683 40.2633 509.98 35.5576 513.999 30.9999C514.656 30.2497 515.312 29.4994 515.988 28.7265C542.188 0.657949 594.309 -2.7196 624.507 20.9374Z" fill="#FFA53C"/>
</svg>

