<svg width="500" height="500" viewBox="0 0 500 500" fill="none" xmlns="http://www.w3.org/2000/svg">
<rect width="500" height="500" rx="250" fill="#FFA53C"/>
<path d="M270.148 109.07C270.674 109.065 271.199 109.061 271.741 109.056C293.937 108.904 293.937 108.904 303.645 111.175C304.497 111.371 304.497 111.371 305.365 111.571C330.218 117.485 349.715 131.043 363.14 152.372C371.154 165.482 375.961 180.191 378.616 195.177C378.717 195.743 378.819 196.31 378.924 196.893C381.071 210.053 381.338 223.324 381.296 236.618C381.295 238.323 381.296 240.028 381.296 241.733C381.297 245.369 381.293 249.004 381.285 252.639C381.274 257.894 381.271 263.15 381.269 268.405C381.266 276.936 381.257 285.468 381.244 293.999C381.232 302.275 381.222 310.551 381.217 318.827C381.216 319.344 381.216 319.862 381.216 320.395C381.213 324.442 381.21 328.49 381.208 332.537C381.195 352.295 381.168 372.052 381.143 391.81C353.345 391.81 325.547 391.81 296.907 391.81C296.881 380.189 296.856 368.568 296.83 356.595C296.81 349.223 296.789 341.852 296.766 334.481C296.754 330.607 296.742 326.733 296.73 322.858C296.728 322.13 296.728 322.13 296.725 321.387C296.701 313.573 296.685 305.758 296.671 297.944C296.656 289.91 296.633 281.877 296.604 273.843C296.586 268.895 296.574 263.948 296.57 259C296.566 255.191 296.551 251.382 296.533 247.573C296.527 246.022 296.525 244.47 296.526 242.918C296.535 225.512 295.188 207.439 282.278 194.132C278.601 190.655 274.657 188.063 269.951 186.099C269.519 185.916 269.088 185.734 268.643 185.547C256.185 180.913 241.18 182.17 228.978 186.817C218.473 191.534 212.171 199.978 207.895 210.193C203.714 221.339 203.61 232.813 203.619 244.526C203.613 246.141 203.606 247.755 203.598 249.369C203.583 252.819 203.574 256.269 203.571 259.719C203.567 264.707 203.552 269.695 203.533 274.683C203.504 282.779 203.484 290.876 203.47 298.972C203.455 306.828 203.437 314.685 203.413 322.541C203.411 323.032 203.41 323.523 203.408 324.028C203.395 328.297 203.382 332.566 203.369 336.835C203.312 355.16 203.276 373.485 203.236 391.81C175.438 391.81 147.64 391.81 119 391.81C119 299.634 119 207.458 119 112.489C144.129 112.489 169.259 112.489 195.149 112.489C196.928 121.599 198.708 130.708 200.541 140.093C200.763 140.527 200.985 140.96 201.214 141.407C201.818 140.773 201.818 140.773 202.433 140.126C219.762 122.523 244.687 109.219 270.148 109.07Z" fill="white"/>
</svg>

